<?xml version="1.0"?>
<svg width="2560" height="1440" xmlns="http://www.w3.org/2000/svg" xmlns:svg="http://www.w3.org/2000/svg">
 <metadata id="metadata8">image/svg+xml</metadata>
 <defs>
  <clipPath clipPathUnits="userSpaceOnUse" id="clipPath18">
   <path d="m-456.335793,944.64617l1920,0l0,-1080l-1920,0l0,1080z" id="path16"/>
  </clipPath>
 </defs>
 <g class="layer">
  <title>Layer 1</title>
  <g id="g10" transform="matrix(0.517163 0 0 -0.517163 579.814 771.623)">
   <g id="g12">
    <g clip-path="url(#clipPath18)" id="g14">
     <g id="g20" transform="translate(1106.64 483.945)">
      <path d="m-456.335793,-135.35383l-0.115,-0.015l-0.115,0.001c-0.605,0.739 -0.6,1.479 -0.006,2.22c0.079,0.001 0.157,-0.003 0.236,-0.012l0,-2.194z" fill="#fee9c2" fill-rule="nonzero" id="path22"/>
     </g>
     <g id="g24" transform="translate(807.998 597.855)">
      <path d="m-456.335793,-135.35383c-0.308,57.138 46.108,104.939 105.337,104.033c28.657,-0.439 53.334,-11.049 73.317,-31.766c19.662,-20.384 29.087,-44.948 28.95,-73.233c-0.279,-56.994 -46.795,-103.562 -106.355,-102.815c-54.511,0.684 -101.688,47.071 -101.249,103.781" fill="#ffffff" fill-rule="nonzero" id="path26"/>
     </g>
     <g id="g28" transform="translate(807.998 597.855)">
      <path d="m-456.335793,-135.35383c-0.308,57.138 46.108,104.939 105.337,104.033c28.657,-0.439 53.334,-11.049 73.317,-31.766c19.662,-20.384 29.087,-44.948 28.95,-73.233c-0.279,-56.994 -46.795,-103.562 -106.355,-102.815c-54.511,0.684 -101.688,47.071 -101.249,103.781z" fill="none" id="path30" stroke="#000000" stroke-miterlimit="10"/>
     </g>
     <g id="g32" transform="translate(740.779 672.097)">
      <path d="m-456.335793,-135.35383c-0.002,8.565 2.132,15.279 6.795,21.051c3.615,4.473 8.226,7.677 13.63,9.712c5.206,1.961 10.606,2.746 16.149,2.987c12.064,0.524 23.564,-1.928 34.765,-6.185c5.902,-2.243 11.514,-5.071 16.971,-8.225c2.116,-1.224 2.42,-2.536 1.173,-4.633c-5.19,-8.734 -10.361,-17.479 -15.53,-26.227c-4.774,-8.08 -9.548,-16.161 -14.301,-24.254c-3.876,-6.601 -7.687,-13.24 -11.596,-19.821c-1.448,-2.438 -2.376,-2.609 -4.774,-1.13c-6.829,4.209 -13.426,8.718 -19.447,14.071c-8.294,7.374 -14.943,15.946 -19.583,26.029c-2.589,5.627 -4.361,11.485 -4.252,16.625" fill="#ffffff" fill-rule="nonzero" id="path34"/>
     </g>
     <g id="g36" transform="translate(740.779 672.097)">
      <path d="m-456.335793,-135.35383c-0.002,8.565 2.132,15.279 6.795,21.051c3.615,4.473 8.226,7.677 13.63,9.712c5.206,1.961 10.606,2.746 16.149,2.987c12.064,0.524 23.564,-1.928 34.765,-6.185c5.902,-2.243 11.514,-5.071 16.971,-8.225c2.116,-1.224 2.42,-2.536 1.173,-4.633c-5.19,-8.734 -10.361,-17.479 -15.53,-26.227c-4.774,-8.08 -9.548,-16.161 -14.301,-24.254c-3.876,-6.601 -7.687,-13.24 -11.596,-19.821c-1.448,-2.438 -2.376,-2.609 -4.774,-1.13c-6.829,4.209 -13.426,8.718 -19.447,14.071c-8.294,7.374 -14.943,15.946 -19.583,26.029c-2.589,5.627 -4.361,11.485 -4.252,16.625z" fill="none" id="path38" stroke="#000000" stroke-miterlimit="10"/>
     </g>
     <g id="g40" transform="translate(739.683 514.208)">
      <path d="m-456.335793,-135.35383c-0.008,7.723 1.876,14.05 4.683,20.145c2.995,6.502 6.938,12.363 11.717,17.714c4.858,5.44 10.432,10.012 16.263,14.325c3.818,2.823 7.992,5.084 11.948,7.688c2.362,1.554 3.848,1.089 5.322,-1.55c1.756,-3.145 3.442,-6.329 5.176,-9.486c3.931,-7.152 7.873,-14.296 11.808,-21.445c3.055,-5.552 6.09,-11.116 9.16,-16.66c4.238,-7.657 8.489,-15.308 12.76,-22.948c1.345,-2.405 1.007,-3.841 -1.374,-5.176c-6.419,-3.601 -13.124,-6.575 -20.094,-8.924c-5.393,-1.818 -10.947,-3.079 -16.572,-3.884c-4.087,-0.585 -8.221,-0.995 -12.369,-0.874c-7.253,0.213 -14.301,1.46 -20.867,4.685c-7.616,3.743 -13.351,9.296 -16.094,17.518c-1.055,3.165 -1.69,6.431 -1.467,8.872" fill="#ffffff" fill-rule="nonzero" id="path42"/>
     </g>
     <g id="g44" transform="translate(739.683 514.208)">
      <path d="m-456.335793,-135.35383c-0.008,7.723 1.876,14.05 4.683,20.145c2.995,6.502 6.938,12.363 11.717,17.714c4.858,5.44 10.432,10.012 16.263,14.325c3.818,2.823 7.992,5.084 11.948,7.688c2.362,1.554 3.848,1.089 5.322,-1.55c1.756,-3.145 3.442,-6.329 5.176,-9.486c3.931,-7.152 7.873,-14.296 11.808,-21.445c3.055,-5.552 6.09,-11.116 9.16,-16.66c4.238,-7.657 8.489,-15.308 12.76,-22.948c1.345,-2.405 1.007,-3.841 -1.374,-5.176c-6.419,-3.601 -13.124,-6.575 -20.094,-8.924c-5.393,-1.818 -10.947,-3.079 -16.572,-3.884c-4.087,-0.585 -8.221,-0.995 -12.369,-0.874c-7.253,0.213 -14.301,1.46 -20.867,4.685c-7.616,3.743 -13.351,9.296 -16.094,17.518c-1.055,3.165 -1.69,6.431 -1.467,8.872z" fill="none" id="path46" stroke="#000000" stroke-miterlimit="10"/>
     </g>
     <g id="g48" transform="translate(1039.99 707.773)">
      <path d="m-456.335793,-135.35383c8.882,-0.019 17.142,-2.398 24.501,-7.296c7.243,-4.819 11.549,-11.709 12.825,-20.422c1.029,-7.023 -0.209,-13.703 -2.585,-20.299c-2.549,-7.075 -6.321,-13.433 -11.08,-19.187c-3.634,-4.393 -7.77,-8.311 -12.228,-11.895c-4.302,-3.458 -8.813,-6.602 -13.489,-9.521c-1.084,-0.676 -2.213,-1.281 -3.43,-1.685c-1.764,-0.584 -3.23,-0.091 -4.355,1.355c-1.745,2.242 -3.028,4.762 -4.416,7.218c-3.722,6.584 -7.42,13.182 -11.112,19.783c-2.802,5.011 -5.569,10.043 -8.372,15.053c-3.693,6.602 -7.413,13.187 -11.104,19.789c-1.667,2.983 -3.329,5.972 -4.922,8.996c-1.09,2.074 -0.788,3.413 1.251,4.61c4.608,2.703 9.444,4.955 14.424,6.893c6.335,2.465 12.851,4.318 19.56,5.379c2.904,0.459 5.843,0.782 8.795,0.967c1.91,0.12 3.815,0.196 5.737,0.262" fill="#ffffff" fill-rule="nonzero" id="path50"/>
     </g>
     <g id="g52" transform="translate(1039.99 707.773)">
      <path d="m-456.335793,-135.35383c8.882,-0.019 17.142,-2.398 24.501,-7.296c7.243,-4.819 11.549,-11.709 12.825,-20.422c1.029,-7.023 -0.209,-13.703 -2.585,-20.299c-2.549,-7.075 -6.321,-13.433 -11.08,-19.187c-3.634,-4.393 -7.77,-8.311 -12.228,-11.895c-4.302,-3.458 -8.813,-6.602 -13.489,-9.521c-1.084,-0.676 -2.213,-1.281 -3.43,-1.685c-1.764,-0.584 -3.23,-0.091 -4.355,1.355c-1.745,2.242 -3.028,4.762 -4.416,7.218c-3.722,6.584 -7.42,13.182 -11.112,19.783c-2.802,5.011 -5.569,10.043 -8.372,15.053c-3.693,6.602 -7.413,13.187 -11.104,19.789c-1.667,2.983 -3.329,5.972 -4.922,8.996c-1.09,2.074 -0.788,3.413 1.251,4.61c4.608,2.703 9.444,4.955 14.424,6.893c6.335,2.465 12.851,4.318 19.56,5.379c2.904,0.459 5.843,0.782 8.795,0.967c1.91,0.12 3.815,0.196 5.737,0.262z" fill="none" id="path54" stroke="#000000" stroke-miterlimit="10"/>
     </g>
     <g id="g56" transform="translate(1077.81 511.183)">
      <path d="m-456.335793,-135.35383c-0.327,-10.7 -4.585,-19.182 -13.412,-25.22c-5.794,-3.963 -12.274,-6.119 -19.138,-7.225c-3.14,-0.506 -6.305,-0.724 -9.492,-0.876c-8.999,-0.43 -17.474,1.722 -25.805,4.776c-6.271,2.298 -12.204,5.297 -18.009,8.579c-2.087,1.18 -2.965,2.353 -1.332,5.084c4.488,7.509 8.925,15.048 13.356,22.59c5.701,9.704 11.373,19.425 17.063,29.134c3.664,6.25 7.331,12.497 11.013,18.736c1.059,1.794 2.201,2.078 3.981,1.014c6.456,-3.863 12.672,-8.046 18.354,-13.02c9.956,-8.717 17.421,-19.083 21.451,-31.77c0.964,-3.032 1.701,-6.135 1.734,-9.355c0.008,-0.865 0.475,-1.683 0.236,-2.447" fill="#ffffff" fill-rule="nonzero" id="path58"/>
     </g>
     <g id="g60" transform="translate(1077.81 511.183)">
      <path d="m-456.335793,-135.35383c-0.327,-10.7 -4.585,-19.182 -13.412,-25.22c-5.794,-3.963 -12.274,-6.119 -19.138,-7.225c-3.14,-0.506 -6.305,-0.724 -9.492,-0.876c-8.999,-0.43 -17.474,1.722 -25.805,4.776c-6.271,2.298 -12.204,5.297 -18.009,8.579c-2.087,1.18 -2.965,2.353 -1.332,5.084c4.488,7.509 8.925,15.048 13.356,22.59c5.701,9.704 11.373,19.425 17.063,29.134c3.664,6.25 7.331,12.497 11.013,18.736c1.059,1.794 2.201,2.078 3.981,1.014c6.456,-3.863 12.672,-8.046 18.354,-13.02c9.956,-8.717 17.421,-19.083 21.451,-31.77c0.964,-3.032 1.701,-6.135 1.734,-9.355c0.008,-0.865 0.475,-1.683 0.236,-2.447z" fill="none" id="path62" stroke="#000000" stroke-miterlimit="10"/>
     </g>
     <g id="g64" transform="translate(938.877 710.206)">
      <path d="m-456.335793,-135.35383c-3.701,0 -7.414,-0.196 -11.099,0.045c-5.932,0.387 -11.871,-0.073 -17.786,0.276c-6.162,0.363 -12.326,-0.077 -18.471,0.27c-6.8,0.383 -13.598,0.04 -20.391,0.266c-1.555,0.053 -3.386,-0.142 -4.18,1.863c-0.229,0.579 -0.266,1.146 -0.264,1.738c0.056,13.01 2.273,25.615 7.255,37.662c2.335,5.645 4.814,11.275 8.71,16.049c5.851,7.17 12.824,12.819 22.127,14.893c6.34,1.413 12.485,0.598 18.375,-2.035c9.016,-4.031 15.232,-11.08 20.328,-19.251c5.36,-8.594 8.296,-18.068 9.879,-28.007c0.809,-5.075 1.296,-10.176 1.4,-15.32c0.03,-1.446 0.113,-2.865 0.023,-4.325c-0.191,-3.111 -1.874,-4.051 -4.531,-4.109c-3.79,-0.083 -7.583,-0.021 -11.375,-0.021l0,0.006z" fill="#ffffff" fill-rule="nonzero" id="path66"/>
     </g>
     <g id="g68" transform="translate(938.877 710.206)">
      <path d="m-456.335793,-135.35383c-3.701,0 -7.414,-0.196 -11.099,0.045c-5.932,0.387 -11.871,-0.073 -17.786,0.276c-6.162,0.363 -12.326,-0.077 -18.471,0.27c-6.8,0.383 -13.598,0.04 -20.391,0.266c-1.555,0.053 -3.386,-0.142 -4.18,1.863c-0.229,0.579 -0.266,1.146 -0.264,1.738c0.056,13.01 2.273,25.615 7.255,37.662c2.335,5.645 4.814,11.275 8.71,16.049c5.851,7.17 12.824,12.819 22.127,14.893c6.34,1.413 12.485,0.598 18.375,-2.035c9.016,-4.031 15.232,-11.08 20.328,-19.251c5.36,-8.594 8.296,-18.068 9.879,-28.007c0.809,-5.075 1.296,-10.176 1.4,-15.32c0.03,-1.446 0.113,-2.865 0.023,-4.325c-0.191,-3.111 -1.874,-4.051 -4.531,-4.109c-3.79,-0.083 -7.583,-0.021 -11.375,-0.021l0,0.006z" fill="none" id="path70" stroke="#000000" stroke-miterlimit="10"/>
     </g>
     <g id="g72" transform="translate(727.26 688.328)">
      <path d="m-456.335793,-135.35383c-7.513,0.046 -13.776,6.37 -13.713,13.846c0.064,7.488 6.175,13.372 13.813,13.299c7.989,-0.077 13.654,-5.77 13.609,-13.678c-0.042,-7.432 -6.232,-13.513 -13.709,-13.467" fill="#fea608" fill-rule="nonzero" id="path74"/>
     </g>
     <g id="g76" transform="translate(711.161 491.533)">
      <path d="m-456.335793,-135.35383c0.003,7.48 6.23,13.765 13.635,13.761c7.472,-0.004 13.615,-6.293 13.599,-13.92c-0.016,-7.691 -5.894,-13.429 -13.745,-13.42c-7.578,0.009 -13.492,5.962 -13.489,13.579" fill="#fea608" fill-rule="nonzero" id="path78"/>
     </g>
     <g id="g80" transform="translate(1092.27 688.304)">
      <path d="m-456.335793,-135.35383c-7.854,0.003 -13.488,5.625 -13.491,13.461c-0.003,7.754 5.902,13.749 13.525,13.733c7.431,-0.016 13.748,-6.293 13.782,-13.694c0.036,-7.482 -6.127,-13.503 -13.816,-13.5" fill="#fea608" fill-rule="nonzero" id="path82"/>
     </g>
     <g id="g84" transform="translate(1106.4 486.151)">
      <path d="m-456.335793,-135.35383c0.002,-0.74 0.004,-1.479 0.006,-2.22c-0.666,-7.543 -6.673,-12.936 -14.056,-12.619c-7.192,0.311 -13.072,6.417 -13.095,13.601c-0.022,7.295 5.491,13.308 12.474,13.605c8.26,0.351 13.939,-4.435 14.671,-12.367" fill="#fea608" fill-rule="nonzero" id="path86"/>
     </g>
     <g id="g88" transform="translate(911.963 405.321)">
      <path d="m-456.335793,-135.35383c7.617,-0.017 13.491,-5.985 13.424,-13.642c-0.067,-7.749 -5.851,-13.52 -13.54,-13.509c-7.595,0.01 -13.771,6.108 -13.762,13.588c0.008,7.622 6.105,13.58 13.878,13.563" fill="#fea608" fill-rule="nonzero" id="path90"/>
     </g>
     <g id="g92" transform="translate(813.726 598.06)">
      <path d="m-456.335793,-135.35383c-0.323,53.237 43.765,99.219 99.732,98.104c52.031,-1.036 96.855,-42.121 96.39,-99.108c-0.457,-56.187 -45.828,-98.276 -100.473,-97.143c-53.444,1.108 -95.859,45.071 -95.649,98.147" fill="#fea608" fill-rule="nonzero" id="path94"/>
     </g>
     <g id="g96" transform="translate(787.847 637.519)">
      <path d="m-456.335793,-135.35383c-1.135,-1.979 -2.258,-3.964 -3.41,-5.933c-0.855,-1.463 -1.717,-1.658 -3.157,-0.671c-2.752,1.887 -5.363,3.96 -7.896,6.127c-6.901,5.905 -12.832,12.604 -16.773,20.879c-2.268,4.761 -4.134,9.683 -4.248,15.03c-0.198,9.236 4.394,15.871 13.045,19.155c3.533,1.342 7.221,1.852 10.963,2.163c12.823,1.062 24.774,-2.204 36.366,-7.261c2.641,-1.153 2.986,-2.327 1.527,-4.822c-1.245,-2.126 -2.544,-4.219 -3.819,-6.327c-0.615,-0.249 -1.048,0.18 -1.512,0.432c-5.139,2.804 -10.545,4.879 -16.4,5.419c-6.076,0.56 -12.104,0.372 -17.354,-3.358c-4.047,-2.875 -6.161,-6.835 -6.313,-11.855c-0.196,-6.461 2.396,-11.894 6.095,-16.922c3.089,-4.198 6.939,-7.603 11.235,-10.527c0.617,-0.42 1.44,-0.656 1.651,-1.529" fill="#fea608" fill-rule="nonzero" id="path98"/>
     </g>
     <g id="g100" transform="translate(787.847 637.519)">
      <path d="m-456.335793,-135.35383c-5.079,3.232 -9.655,7.03 -13.245,11.91c-3.376,4.59 -5.813,9.569 -6.123,15.386c-0.485,9.084 5.221,14.644 12.393,16.567c7.419,1.989 14.636,0.849 21.71,-1.741c2.743,-1.005 5.312,-2.374 7.863,-3.782c-3.197,-5.458 -6.391,-10.916 -9.591,-16.372c-4.053,-6.912 -8.109,-13.822 -12.17,-20.73c-0.252,-0.429 -0.557,-0.826 -0.837,-1.238" fill="#0c0000" fill-rule="nonzero" id="path102"/>
     </g>
     <g id="g104" transform="translate(809.61 512.452)">
      <path d="m-456.335793,-135.35383c1.25,-2.282 2.54,-4.544 3.734,-6.854c0.861,-1.667 0.502,-2.662 -1.188,-3.421c-10.528,-4.733 -21.48,-7.653 -33.109,-7.485c-6.021,0.087 -11.919,0.819 -17.356,3.738c-5.979,3.21 -9.86,7.898 -10.598,14.817c-0.482,4.519 0.647,8.781 2.246,12.957c3.805,9.932 10.264,17.924 18.14,24.88c2.809,2.482 5.766,4.781 8.813,6.964c2.328,1.669 3.365,1.433 4.763,-1.092c1.06,-1.915 2.116,-3.833 3.173,-5.749c-0.404,-0.738 -1.195,-0.969 -1.846,-1.364c-5.177,-3.141 -9.674,-7.02 -13.186,-11.991c-2.987,-4.227 -5.066,-8.805 -5.126,-14.071c-0.079,-7.032 3.908,-12.543 10.582,-14.909c6.853,-2.431 13.729,-2.007 20.623,-0.249c3.024,0.771 5.893,1.954 8.668,3.374c0.516,0.264 1.017,0.654 1.667,0.455" fill="#fea608" fill-rule="nonzero" id="path106"/>
     </g>
     <g id="g108" transform="translate(809.61 512.452)">
      <path d="m-456.335793,-135.35383c-8.728,-4.668 -17.901,-6.958 -27.787,-4.893c-4.93,1.03 -9.191,3.324 -11.905,7.778c-3.166,5.193 -2.795,10.631 -0.653,16.036c3.132,7.899 8.884,13.564 15.869,18.113c0.988,0.643 1.963,1.327 3.095,1.721c5.032,-9.098 10.068,-18.194 15.095,-27.296c2.106,-3.813 4.191,-7.64 6.286,-11.459" fill="#0c0000" fill-rule="nonzero" id="path110"/>
     </g>
     <g id="g112" transform="translate(1007.29 677.023)">
      <path d="m-456.335793,-135.35383c-1.235,2.181 -2.491,4.351 -3.699,6.546c-1.05,1.91 -0.743,2.954 1.26,3.807c8.693,3.696 17.607,6.585 27.15,6.954c6.989,0.27 13.877,-0.227 20.32,-3.301c6.172,-2.944 10.305,-7.581 11.683,-14.426c0.808,-4.021 0.027,-7.886 -1.14,-11.721c-2.342,-7.691 -6.372,-14.406 -11.672,-20.402c-4.381,-4.956 -9.423,-9.163 -14.756,-13.038c-1.962,-1.425 -3.007,-1.207 -4.194,0.878c-1.126,1.981 -2.185,4 -3.274,6.003c0.005,0.717 0.65,0.81 1.086,1.082c6.091,3.807 11.282,8.529 14.936,14.79c2.318,3.969 3.815,8.193 3.694,12.865c-0.146,5.639 -2.792,9.822 -7.559,12.693c-3.452,2.079 -7.268,2.836 -11.264,2.951c-7.157,0.204 -13.833,-1.54 -20.17,-4.776c-0.759,-0.387 -1.47,-0.951 -2.401,-0.905" fill="#fea608" fill-rule="nonzero" id="path114"/>
     </g>
     <g id="g116" transform="translate(1007.29 677.023)">
      <path d="m-456.335793,-135.35383c9.331,5.27 19.169,7.875 29.778,4.875c6.516,-1.842 10.841,-6.097 11.854,-13.071c0.622,-4.285 -0.396,-8.346 -2.235,-12.202c-3.592,-7.536 -9.344,-13.068 -16.327,-17.437c-0.464,-0.29 -0.928,-0.577 -1.392,-0.865c-2.218,3.444 -4.033,7.116 -6.039,10.679c-5.07,9.007 -10.116,18.027 -15.167,27.044c-0.177,0.315 -0.316,0.651 -0.472,0.977" fill="#0c0000" fill-rule="nonzero" id="path118"/>
     </g>
     <g id="g120" transform="translate(1032.14 544.27)">
      <path d="m-456.335793,-135.35383c1.189,2.051 2.334,4.129 3.58,6.146c1.281,2.071 2.611,2.398 4.539,0.945c9.946,-7.499 18.349,-16.309 23.237,-28.002c2.178,-5.209 3.366,-10.596 2.336,-16.28c-1.296,-7.152 -5.561,-11.941 -12.023,-14.902c-4.861,-2.228 -10.022,-2.774 -15.338,-2.83c-10.506,-0.11 -20.42,2.317 -30.016,6.369c-0.377,0.16 -0.76,0.309 -1.126,0.494c-1.852,0.939 -2.251,1.954 -1.254,3.757c1.165,2.109 2.473,4.14 3.72,6.205c0.593,0.056 1.038,-0.288 1.51,-0.559c5.044,-2.897 10.425,-4.868 16.203,-5.582c5.372,-0.663 10.646,-0.338 15.601,2.181c6.12,3.11 8.977,9.235 8.156,15.942c-0.75,6.125 -3.626,11.212 -7.437,15.889c-2.942,3.608 -6.457,6.555 -10.321,9.114c-0.491,0.325 -1.042,0.582 -1.367,1.113" fill="#fea608" fill-rule="nonzero" id="path122"/>
     </g>
     <g id="g124" transform="translate(1032.14 544.27)">
      <path d="m-456.335793,-135.35383c2.763,-1.281 5.081,-3.208 7.316,-5.211c5.47,-4.902 9.766,-10.61 11.625,-17.86c1.341,-5.231 0.987,-10.262 -2.334,-14.748c-2.844,-3.844 -6.878,-5.792 -11.469,-6.581c-9.345,-1.604 -17.888,0.892 -26.01,5.337c-0.513,0.28 -0.982,0.642 -1.473,0.965c4.819,8.165 9.648,16.323 14.45,24.497c2.656,4.519 5.265,9.066 7.895,13.601" fill="#0c0000" fill-rule="nonzero" id="path126"/>
     </g>
     <g id="g128" transform="translate(901.96 721.098)">
      <path d="m-456.335793,-135.35383c-4.418,-0.204 -8.84,-0.191 -13.261,-0.182c-2.601,0.005 -5.202,-0.002 -7.803,-0.015c-1.803,-0.009 -2.511,0.632 -2.355,2.366c0.801,8.935 2.232,17.742 5.737,26.078c3.029,7.205 7.165,13.678 13.22,18.724c8.243,6.87 18.372,6.648 26.372,-0.547c5.876,-5.285 9.881,-11.904 13.019,-19.07c3.247,-7.415 4.894,-15.261 5.983,-23.236c0.392,-2.874 -0.422,-3.764 -3.321,-3.8c-2.237,-0.027 -4.475,0.003 -6.713,0.007c-0.578,0.493 -0.41,1.173 -0.426,1.792c-0.194,7.498 -1.995,14.54 -6.041,20.913c-2.336,3.679 -5.265,6.803 -9.282,8.672c-6.019,2.8 -12.629,1.452 -17.768,-3.499c-4.371,-4.21 -6.995,-9.417 -8.63,-15.174c-1,-3.524 -1.582,-7.127 -1.681,-10.793c-0.048,-1.748 0.025,-1.784 1.728,-1.787c3.151,-0.007 6.301,0.01 9.451,-0.013c0.609,-0.004 1.3,0.185 1.771,-0.436" fill="#fea608" fill-rule="nonzero" id="path130"/>
     </g>
     <g id="g132" transform="translate(901.96 721.098)">
      <path d="m-456.335793,-135.35383c-4.063,-0.008 -8.127,-0.013 -12.191,-0.029c-0.667,-0.003 -1.226,-0.079 -1.199,0.944c0.244,9.263 2.431,17.901 8.356,25.247c3.583,4.441 8.093,7.42 14.048,7.349c5.332,-0.063 9.476,-2.691 12.915,-6.546c4.341,-4.865 6.725,-10.688 8.047,-16.99c0.667,-3.177 1.066,-6.39 0.902,-9.65c-9.655,-0.295 -19.313,-0.191 -28.97,-0.253c-0.636,-0.004 -1.272,-0.047 -1.908,-0.072" fill="#0c0000" fill-rule="nonzero" id="path134"/>
     </g>
     <g id="g136" transform="translate(913.053 411.943)">
      <path d="m-456.335793,-135.35383c-8.216,-0.024 -14.928,2.73 -20.966,7.311c-7.725,5.859 -13.189,13.546 -17.433,22.13c-2.512,5.081 -4.015,10.537 -5.018,16.113c-0.82,4.561 -1.449,9.135 -1.673,13.787c-0.14,2.913 -0.211,5.828 -0.298,8.741c-0.03,0.992 0.087,2 0.246,2.983c0.186,1.147 1.687,2.034 3.006,1.743c0.687,-0.152 1.357,-0.176 2.035,-0.146c3.877,0.172 7.749,-0.132 11.623,-0.175c4.732,-0.052 9.466,-0.216 14.2,-0.313c5.053,-0.106 10.106,-0.22 15.159,-0.326c4.916,-0.103 9.832,-0.217 14.748,-0.327c5.144,-0.114 10.301,-0.034 15.431,-0.348c3.23,-0.197 6.461,0.171 9.683,-0.292c1.534,-0.22 2.133,-0.624 2.14,-2.208c0.018,-3.777 -0.314,-7.532 -0.601,-11.295c-0.374,-4.91 -1.203,-9.74 -2.36,-14.503c-2.462,-10.137 -6.809,-19.386 -13.289,-27.616c-3.945,-5.011 -8.583,-9.143 -14.291,-12.044c-4.047,-2.057 -8.351,-3.035 -12.342,-3.215" fill="#ffffff" fill-rule="nonzero" id="path138"/>
     </g>
     <g id="g140" transform="translate(913.053 411.943)">
      <path d="m-456.335793,-135.35383c-8.216,-0.024 -14.928,2.73 -20.966,7.311c-7.725,5.859 -13.189,13.546 -17.433,22.13c-2.512,5.081 -4.015,10.537 -5.018,16.113c-0.82,4.561 -1.449,9.135 -1.673,13.787c-0.14,2.913 -0.211,5.828 -0.298,8.741c-0.03,0.992 0.087,2 0.246,2.983c0.186,1.147 1.687,2.034 3.006,1.743c0.687,-0.152 1.357,-0.176 2.035,-0.146c3.877,0.172 7.749,-0.132 11.623,-0.175c4.732,-0.052 9.466,-0.216 14.2,-0.313c5.053,-0.106 10.106,-0.22 15.159,-0.326c4.916,-0.103 9.832,-0.217 14.748,-0.327c5.144,-0.114 10.301,-0.034 15.431,-0.348c3.23,-0.197 6.461,0.171 9.683,-0.292c1.534,-0.22 2.133,-0.624 2.14,-2.208c0.018,-3.777 -0.314,-7.532 -0.601,-11.295c-0.374,-4.91 -1.203,-9.74 -2.36,-14.503c-2.462,-10.137 -6.809,-19.386 -13.289,-27.616c-3.945,-5.011 -8.583,-9.143 -14.291,-12.044c-4.047,-2.057 -8.351,-3.035 -12.342,-3.215z" fill="none" id="path142" stroke="#000000" stroke-miterlimit="10"/>
     </g>
     <g id="g144" transform="translate(934.444 471.396)">
      <path d="m-456.335793,-135.35383c2.598,-0.068 5.198,-0.09 7.792,-0.224c1.686,-0.086 2.372,-0.975 2.19,-2.627c-1.185,-10.754 -3.869,-21.071 -9.226,-30.554c-3.324,-5.884 -7.163,-11.362 -13.11,-14.974c-6.779,-4.117 -13.624,-4.609 -20.523,-0.338c-3.187,1.973 -5.698,4.686 -7.983,7.619c-6.578,8.443 -10.168,18.151 -12.07,28.568c-0.648,3.545 -1.195,7.107 -1.399,10.709c-0.148,2.618 0.534,3.294 3.122,3.229c2.28,-0.057 4.558,-0.153 6.837,-0.232c0.558,-1.624 0.399,-3.336 0.524,-4.999c0.612,-8.083 2.819,-15.578 8.155,-21.834c6.733,-7.895 16.4,-9.047 24.43,-1.566c4.533,4.224 7.254,9.572 8.995,15.452c1.016,3.428 1.537,6.949 1.848,10.504c0.039,0.447 0.032,0.927 0.418,1.267" fill="#fea608" fill-rule="nonzero" id="path146"/>
     </g>
     <g id="g148" transform="translate(934.477 471.396)">
      <path d="m-456.335793,-135.35383c-0.409,-8.349 -2.399,-16.214 -7.248,-23.161c-2.856,-4.094 -6.41,-7.436 -11.334,-8.807c-7.069,-1.968 -12.717,0.712 -17.307,5.964c-4.707,5.387 -6.968,11.884 -8.003,18.861c-0.408,2.756 -0.593,5.531 -0.479,8.319c8.789,-0.065 17.576,-0.235 26.359,-0.535c6.004,-0.206 12.008,-0.427 18.012,-0.641" fill="#0c0000" fill-rule="nonzero" id="path150"/>
     </g>
     <g id="g152" transform="translate(1006.65 597.965)">
      <path d="m-456.335793,-135.35383c0,-52.598 -42.458,-94.899 -95.284,-94.85c-52.076,0.049 -95.617,42.822 -94.526,96.973c1.041,51.611 43.368,93.089 95.487,92.906c51.982,-0.183 94.323,-42.709 94.323,-95.029" fill="#0c5508" fill-rule="nonzero" id="path154"/>
     </g>
     <g id="g156" transform="translate(1001.03 598.011)">
      <path d="m-456.335793,-135.35383c-0.108,-49.088 -39.628,-89.285 -89.398,-89.232c-50.473,0.052 -90.265,41.665 -89.108,91.4c1.097,47.113 39.433,87.112 89.285,87.103c49.696,-0.009 89.136,-40.212 89.221,-89.271" fill="#fea708" fill-rule="nonzero" id="path158"/>
     </g>
     <g id="g160" transform="translate(908.901 791.026)">
      <path d="m-456.335793,-135.35383c-7.513,0.046 -13.776,6.37 -13.712,13.846c0.063,7.488 6.174,13.373 13.812,13.299c7.99,-0.077 13.655,-5.77 13.609,-13.678c-0.042,-7.432 -6.232,-13.513 -13.709,-13.467" fill="#fea608" fill-rule="nonzero" id="path162"/>
     </g>
    </g>
   </g>
  </g>
  <text fill="#000000" font-family="Helvetica" font-size="24" id="svg_1" stroke="#000000" stroke-width="0" text-anchor="middle" transform="matrix(2.32715 0 0 2.32715 -685.578 -632.264)" x="526.687021" xml:space="preserve" y="497.830884">Barrio</text>
  <text fill="#000000" font-family="Helvetica" font-size="24" id="svg_2" stroke="#000000" stroke-width="0" text-anchor="middle" transform="matrix(2.32715 0 0 2.32715 -685.578 -632.264)" x="540.181124" xml:space="preserve" y="521.567523">Eléctrico</text>
 </g>
</svg>